<svg xmlns="http://www.w3.org/2000/svg" viewBox="0 0 362.9 252.9"><style>.st0{fill:#6433aa}</style><path class="st0" d="M144.3 97.9c-13.3 1-27.9 3.9-43.6 8.8-15.8 4.8-29.2 11.4-40.5 19.6-11.2 8.2-16.8 17.5-16.8 28 0 21.8 18.8 32.7 56.4 32.7 12.3 0 25.8-1.1 40.3-3.3 1.2 4 2.6 11.9 4.1 23.6 1.5 11.7 2.2 20.4 2 26.1-16 4.6-32.4 7-49.4 7-18 0-34.3-2.8-49-8.5-14.7-5.7-26.3-14-34.9-25.2C4.3 195.6 0 182.3 0 166.7c0-16.8 4.3-32.7 12.9-47.9 8.6-15.2 21.6-28.3 38.9-39.4C63.3 72.1 73.7 66.3 83 61.8c-12.5-4.2-22.9-7.3-31.2-9.1-7.9-1.8-18.4-3-31.5-3.6l-7.6-.3-1.2-1.2c.6-6.9 2.1-15.2 4.4-24.9C18.2 13 20.6 5.9 23 1.2 27.9.4 31.6 0 34.3 0c9.1 0 18.2 1.7 27.4 5.2 9.2 3.4 20.4 8.6 33.5 15.5 13.9 7.3 25.2 12.6 33.6 16.1 8.5 3.4 16.9 5.2 25.2 5.2.2 5.3-.7 13.6-2.7 25.2-2.1 12.5-4.4 22.8-7 30.7zm-37.5 27c4.5 2.4 8.8 5.4 12.7 8.9 3.9 3.5 6.1 6.3 6.5 8.3.8 3-1.5 8.3-6.8 15.9-5.4 7.6-9.9 12.6-13.5 15-4.2-1.6-9.8-4.8-16.7-9.5-6.9-4.8-11.6-8.8-14.2-12.3.6-2.6 2.2-6.2 4.7-10.8 2.5-4.5 5.4-8.7 8.6-12.4 3.2-3.7 6.1-5.8 8.5-6.2 2.3-.4 5.7.7 10.2 3.1zM171.9 166.3c-9.7-6.3-16.7-12-20.9-17.3 9.7-14.4 19.2-31.4 28.5-51.2 9.7-20.2 17.7-40.6 23.9-61.2l42.4 14.2c-3.4 20-9.7 41.9-18.8 65.8-5.7 14.7-11.5 27.9-17.4 39.6-6 11.6-10.3 19.6-12.9 23.8-7-2.7-15.3-7.2-24.8-13.7zM353.3 49.2c6.4 17 9.5 33.9 9.5 50.9 0 13.3-2.2 26.4-6.7 39.1-5.9 2.6-15.6 5.1-29.2 7.4-13.6 2.3-27.2 3.5-40.8 3.5-12.7 0-23.5-1.1-32.4-3.3.6-17.6 3.9-35.6 10-54 11.1 1 21.6 1.5 31.5 1.5 8.7 0 17-.3 24.9-.9-7.7-20-18.9-39.1-33.6-57.3L328.3.6c10.3 15.5 18.7 31.6 25 48.6zM189.9 235.1c-1.2 2-2.8 3.5-4.7 4.4-1.9.9-4.1 1.3-6.6 1.3-2.8 0-5.2-.5-7.3-1.6-2.1-1.1-3.9-2.5-5.2-4.4-1.4-1.8-2.4-4-3.1-6.4-.7-2.4-1-4.9-1-7.5 0-2.5.3-4.9 1-7.2s1.7-4.4 3.1-6.2c1.4-1.8 3.1-3.2 5.1-4.3s4.5-1.6 7.2-1.6c2.2 0 4.3.5 6.3 1.4 2 .9 3.6 2.3 4.7 4.1h.1v-18.7h10.2v51.4H190V235h-.1zm-.4-18.4c-.3-1.4-.8-2.7-1.5-3.7-.7-1.1-1.6-2-2.7-2.6-1.1-.7-2.5-1-4.2-1-1.7 0-3.1.3-4.2 1s-2.1 1.6-2.8 2.7c-.7 1.1-1.2 2.4-1.5 3.8-.3 1.4-.5 2.9-.5 4.4 0 1.4.2 2.9.5 4.3s.9 2.7 1.6 3.9c.7 1.1 1.7 2 2.8 2.7 1.1.7 2.5 1 4.1 1 1.7 0 3.1-.3 4.2-1s2-1.6 2.7-2.7c.7-1.1 1.2-2.4 1.4-3.9.3-1.4.4-2.9.4-4.5s0-3-.3-4.4zM218.4 230.9c1.5 1.5 3.7 2.2 6.6 2.2 2.1 0 3.8-.5 5.3-1.5s2.4-2.1 2.7-3.3h9c-1.4 4.5-3.6 7.7-6.6 9.6-3 1.9-6.6 2.9-10.8 2.9-2.9 0-5.6-.5-7.9-1.4-2.4-.9-4.3-2.3-6-4-1.6-1.7-2.9-3.8-3.8-6.2-.9-2.4-1.3-5-1.3-7.9 0-2.8.5-5.4 1.4-7.8.9-2.4 2.2-4.5 3.9-6.2 1.7-1.8 3.7-3.1 6-4.1 2.3-1 4.9-1.5 7.7-1.5 3.2 0 5.9.6 8.3 1.8 2.4 1.2 4.3 2.9 5.8 4.9 1.5 2.1 2.6 4.4 3.3 7.1.7 2.6.9 5.4.7 8.3h-26.9c.3 3.2 1.1 5.6 2.6 7.1zm11.6-19.6c-1.2-1.3-3.1-2-5.6-2-1.6 0-3 .3-4.1.8-1.1.6-1.9 1.2-2.6 2.1-.6.8-1.1 1.7-1.4 2.6-.3.9-.4 1.7-.5 2.4h16.6c-.3-2.6-1.2-4.5-2.4-5.9zM258.5 202.6v6.9h.1c.5-1.2 1.1-2.2 1.9-3.2.8-1 1.8-1.8 2.8-2.5 1.1-.7 2.2-1.2 3.4-1.6 1.2-.4 2.4-.6 3.7-.6.7 0 1.4.1 2.2.4v9.5c-.5-.1-1.1-.2-1.7-.3-.7-.1-1.3-.1-1.9-.1-1.9 0-3.5.3-4.8.9-1.3.6-2.3 1.5-3.1 2.6s-1.4 2.3-1.7 3.8c-.3 1.4-.5 3-.5 4.7v16.8h-10.2v-37.2h9.8zM286.5 202.6v6.9h.1c.5-1.2 1.1-2.2 1.9-3.2.8-1 1.8-1.8 2.8-2.5 1.1-.7 2.2-1.2 3.4-1.6 1.2-.4 2.4-.6 3.7-.6.7 0 1.4.1 2.2.4v9.5c-.5-.1-1.1-.2-1.7-.3-.7-.1-1.3-.1-1.9-.1-1.9 0-3.5.3-4.8.9-1.3.6-2.3 1.5-3.1 2.6s-1.4 2.3-1.7 3.8c-.3 1.4-.5 3-.5 4.7v16.8h-10.2v-37.2h9.8zM314.5 230.9c1.5 1.5 3.7 2.2 6.6 2.2 2.1 0 3.8-.5 5.3-1.5s2.4-2.1 2.7-3.3h9c-1.4 4.5-3.6 7.7-6.6 9.6-3 1.9-6.6 2.9-10.8 2.9-2.9 0-5.6-.5-7.9-1.4-2.4-.9-4.3-2.3-6-4-1.6-1.7-2.9-3.8-3.8-6.2-.9-2.4-1.3-5-1.3-7.9 0-2.8.5-5.4 1.4-7.8.9-2.4 2.2-4.5 3.9-6.2 1.7-1.8 3.7-3.1 6-4.1 2.3-1 4.9-1.5 7.7-1.5 3.2 0 5.9.6 8.3 1.8 2.4 1.2 4.3 2.9 5.8 4.9 1.5 2.1 2.6 4.4 3.3 7.1.7 2.6.9 5.4.7 8.3H312c.1 3.2.9 5.6 2.5 7.1zm11.5-19.6c-1.2-1.3-3.1-2-5.6-2-1.6 0-3 .3-4.1.8-1.1.6-1.9 1.2-2.6 2.1-.6.8-1.1 1.7-1.4 2.6-.3.9-.4 1.7-.5 2.4h16.6c-.3-2.6-1.1-4.5-2.4-5.9zM341.8 244.4c1.1 0 2-.2 2.8-.6.8-.4 1.2-1.3 1.2-2.7v-38.5H356v39c0 1.9-.2 3.6-.6 5-.4 1.4-1.1 2.6-2.1 3.5-1 .9-2.3 1.6-4 2.1-1.7.5-3.8.7-6.4.7-1.2 0-2.3-.1-3.2-.3v-8.4c.5.1 1.2.2 2.1.2zm4-47.6v-8.4H356v8.4h-10.2z"/></svg>